<svg width="111" height="30" viewBox="0 0 111 30" fill="none" xmlns="http://www.w3.org/2000/svg">
<rect opacity="0.4" width="111" height="30" rx="15" fill="white"/>
<path d="M19.924 19H25.86V17.25H21.912V9.662H19.924V19ZM26.6257 15.612C26.6257 17.782 28.1797 19.168 30.2377 19.168C31.2877 19.168 32.3517 18.846 33.0237 18.23L32.2397 17.082C31.8057 17.502 31.0637 17.754 30.4337 17.754C29.2857 17.754 28.5997 17.04 28.4877 16.186H33.5137V15.794C33.5137 13.582 32.1417 12.07 30.1257 12.07C28.0677 12.07 26.6257 13.652 26.6257 15.612ZM30.1257 13.484C31.3017 13.484 31.7497 14.338 31.7917 14.982H28.4597C28.5437 14.31 29.0197 13.484 30.1257 13.484ZM38.858 19H40.636V14.632C40.636 12.686 39.222 12.07 37.682 12.07C36.618 12.07 35.554 12.406 34.728 13.134L35.4 14.324C35.974 13.792 36.646 13.526 37.374 13.526C38.27 13.526 38.858 13.974 38.858 14.66V15.598C38.41 15.052 37.612 14.772 36.716 14.772C35.638 14.772 34.364 15.346 34.364 16.928C34.364 18.44 35.638 19.168 36.716 19.168C37.598 19.168 38.396 18.846 38.858 18.3V19ZM38.858 17.376C38.564 17.768 38.004 17.964 37.43 17.964C36.73 17.964 36.156 17.6 36.156 16.97C36.156 16.312 36.73 15.948 37.43 15.948C38.004 15.948 38.564 16.144 38.858 16.536V17.376ZM42.3996 19H44.1776V14.534C44.4716 14.1 45.2556 13.764 45.8436 13.764C46.0396 13.764 46.2076 13.792 46.3336 13.82V12.084C45.4936 12.084 44.6536 12.56 44.1776 13.162V12.238H42.3996V19ZM52.0085 19H53.7865V14.226C53.7865 12.91 53.0725 12.07 51.5885 12.07C50.4825 12.07 49.6565 12.602 49.2225 13.12V12.238H47.4445V19H49.2225V14.45C49.5165 14.044 50.0625 13.652 50.7625 13.652C51.5185 13.652 52.0085 13.974 52.0085 14.912V19ZM67.296 19H69.298V9.662H66.498L64.23 15.486L61.962 9.662H59.176V19H61.164V12.28L63.796 19H64.664L67.296 12.28V19ZM74.2465 19.168C76.4865 19.168 77.8305 17.544 77.8305 15.612C77.8305 13.694 76.4865 12.07 74.2465 12.07C72.0205 12.07 70.6765 13.694 70.6765 15.612C70.6765 17.544 72.0205 19.168 74.2465 19.168ZM74.2465 17.586C73.1405 17.586 72.5245 16.676 72.5245 15.612C72.5245 14.562 73.1405 13.652 74.2465 13.652C75.3525 13.652 75.9825 14.562 75.9825 15.612C75.9825 16.676 75.3525 17.586 74.2465 17.586ZM79.1496 19H80.9276V14.534C81.2216 14.1 82.0056 13.764 82.5936 13.764C82.7896 13.764 82.9576 13.792 83.0836 13.82V12.084C82.2436 12.084 81.4036 12.56 80.9276 13.162V12.238H79.1496V19ZM83.7605 15.612C83.7605 17.782 85.3145 19.168 87.3725 19.168C88.4225 19.168 89.4865 18.846 90.1585 18.23L89.3745 17.082C88.9405 17.502 88.1985 17.754 87.5685 17.754C86.4205 17.754 85.7345 17.04 85.6225 16.186H90.6485V15.794C90.6485 13.582 89.2765 12.07 87.2605 12.07C85.2025 12.07 83.7605 13.652 83.7605 15.612ZM87.2605 13.484C88.4365 13.484 88.8845 14.338 88.9265 14.982H85.5945C85.6785 14.31 86.1545 13.484 87.2605 13.484Z" fill="white"/>
</svg>
